{"title":"Maze Runner-The Scorch Trials 2015 HD-TS XVID AC3 HQ - Bollywood","uid":12487198,"size":1920611721,"categoryP":"video","categoryS":"movies","magnet":"?xt=urn:btih:1b8f011f74eaf923fd577422000dd82a182443d5&amp;dn=Maze+Runner-The+Scorch+Trials+2015+HD-TS+XVID+AC3+HQ+-+Bollywood&amp;tr=udp%3A%2F%2Ftracker.leechers-paradise.org%3A6969&amp;tr=udp%3A%2F%2Fzer0day.ch%3A1337&amp;tr=udp%3A%2F%2Fopen.demonii.com%3A1337&amp;tr=udp%3A%2F%2Ftracker.coppersurfer.tk%3A6969&amp;tr=udp%3A%2F%2Fexodus.desync.com%3A6969","seeders":0,"leechers":1,"uploader":"biggboss9","files":2,"time":1443117785,"description":"Cover \nhttp://bollywoodhour.com/maze-runner-the-scorch-trials-2015-hd-ts-xvid-ac3-hq-bollywoodhour/\r\n\r\nScreens  \nhttp://bollywoodhour.com/maze-runner-the-scorch-trials-2015-hd-ts-xvid-ac3-hq-bollywoodhour/2 \nhttp://bollywoodhour.com/maze-runner-the-scorch-trials-2015-hd-ts-xvid-ac3-hq-bollywoodhour/3 \nhttp://bollywoodhour.com/maze-runner-the-scorch-trials-2015-hd-ts-xvid-ac3-hq-bollywoodhour/4 \nhttp://bollywoodhour.com/maze-runner-the-scorch-trials-2015-hd-ts-xvid-ac3-hq-bollywoodhour/5 \nhttp://bollywoodhour.com/maze-runner-the-scorch-trials-2015-hd-ts-xvid-ac3-hq-bollywoodhour/6 \nhttp://bollywoodhour.com/maze-runner-the-scorch-trials-2015-hd-ts-xvid-ac3-hq-bollywoodhour/7 \nhttp://bollywoodhour.com/maze-runner-the-scorch-trials-2015-hd-ts-xvid-ac3-hq-bollywoodhour/8\r\n\r\nTrailer  \nhttp://bollywoodhour.com/maze-runner-the-scorch-trials-2015-hd-ts-xvid-ac3-hq-bollywoodhour/9\r\n\r\n\r\nSources:\r\n\r\nVideo: 720p Private Source Cam \r\n\r\nAudio: Sweet Direct Line\r\n\r\nNotes:\r\nfirst off this is not the russian or the latin source thats on the net for days, this one is good and new the old source is dark,pixelated and had low bitrate and was done from either a 400 or 800mb file, no wonder it wasnt good. i have worked on that old source too for days to tidy it up, pity though spent so much hours on it and now its wasted, anyhow luckily the new one i got today beats it by far. its brighter,sharper,colours are nicer and its not zoomed in, so left and right side is a lot more to see. the whole video itself is great.\r\n\r\nEncode:\r\n\r\nFixed perspective,rgb and removed some flicker and noise in the video and added some brightness and sharpness\r\n\r\nAudio was very nice line lipsynced to my video\r\n\r\nRating i would say is Video 8.5 and Audio a def 10\r\n\r\ngot very nice and will do me till retail\r\nenjoy\r\n\r\nVideo: 720x400 @bitrate 1800 2pass\r\nAudio: English Direct Line AC3 2.0 Stereo\r\nSample: yes included\r\n\r\n\r\n \nhttp://www.imdb.com/title/tt4046784/\r\n\r\n\r\nGeneral\r\nComplete name                  : Maze.Runner-The.Scorch.Trials.2015.HD-TS.XVID.AC3.HQ.Hive-CM8.avi\r\nFormat                         : AVI\r\nFormat/Info                    : Audio Video Interleave\r\nFile size                      : 1.79 GiB\r\nDuration                       : 2h 3mn\r\nOverall bit rate               : 2 068 Kbps\r\nWriting application            : Nandub v1.0rc2\r\nWriting library                : Nandub build 1853/release\r\n\r\nVideo\r\nID                             : 0\r\nFormat                         : MPEG-4 Visual\r\nFormat profile                 : Advanced   \r\nFormat settings, BVOP          : 2\r\nFormat settings, QPel          : Yes\r\nFormat settings, GMC           : No warppoints\r\nFormat settings, Matrix        : Default (H.263)\r\nMuxing mode                    : Packed bitstream\r\nCodec ID                       : XVID\r\nCodec ID/Hint                  : XviD\r\nDuration                       : 2h 3mn\r\nBit rate                       : 1 800 Kbps\r\nWidth                          : 720 pixels\r\nHeight                         : 400 pixels\r\nDisplay aspect ratio           : 16:9\r\nFrame rate                     : 29.970 fps\r\nColor space                    : YUV\r\nChroma subsampling             : 4:2:0\r\nBit depth                      : 8 bits\r\nScan type                      : Progressive\r\nCompression mode               : Lossy\r\nBits/(Pixel*Frame)             : 0.209\r\nStream size                    : 1.56 GiB (87%)\r\nWriting library                : XviD 1.2.1 (UTC 2008-12-04)\r\n\r\nAudio\r\nID                             : 1\r\nFormat                         : AC-3\r\nFormat/Info                    : Audio Coding 3\r\nMode extension                 : CM (complete main)\r\nFormat settings, Endianness    : Big\r\nCodec ID                       : 2000\r\nDuration                       : 2h 3mn\r\nBit rate mode                  : Constant\r\nBit rate                       : 256 Kbps\r\nChannel(s)                     : 2 channels\r\nChannel positions              : Front: L R\r\nSampling rate                  : 48.0 KHz\r\nBit depth                      : 16 bits\r\nCompression mode               : Lossy\r\nStream size                    : 227 MiB (12%)\r\nAlignment                      : Split accross interleaves\r\nInterleave, duration           : 33 ms (1.00 video frame)\r\nInterleave, preload duration   : 500 ms\r\n\r\n\r\n\r\nPlot\r\n\r\nTransported to a remote fortified outpost, Thomas and his fellow teenage Gladers find themselves in trouble after uncovering a diabolical plot from the mysterious and powerful organization WCKD. With help from a new ally, the Gladers stage a daring escape into the Scorch, a desolate landscape filled with dangerous obstacles and crawling with the virus-infected Cranks. The Gladers only hope may be to find the Right Hand, a group of resistance fighters who can help them battle WCKD.\r\n\r\nCast\r\n\r\nDylan O'Brien \t... \tThomas\r\nKi Hong Lee \t... \tMinho\r\nKaya Scodelario ... \tTeresa\r\nDexter Darden \t... \tFrypan","torrent":{"xt":"urn:btih:1b8f011f74eaf923fd577422000dd82a182443d5","amp;dn":"Maze+Runner-The+Scorch+Trials+2015+HD-TS+XVID+AC3+HQ+-+Bollywood","amp;tr":["udp%3A%2F%2Ftracker.leechers-paradise.org%3A6969","udp%3A%2F%2Fzer0day.ch%3A1337","udp%3A%2F%2Fopen.demonii.com%3A1337","udp%3A%2F%2Ftracker.coppersurfer.tk%3A6969","udp%3A%2F%2Fexodus.desync.com%3A6969"],"infoHash":"1b8f011f74eaf923fd577422000dd82a182443d5","infoHashBuffer":{"type":"Buffer","data":[27,143,1,31,116,234,249,35,253,87,116,34,0,13,216,42,24,36,67,213]},"announce":[],"urlList":[]}}